<svg preserveAspectRatio="none" width="100%" height="100%" overflow="visible" style="display: block;" viewBox="0 0 44 44" fill="none" xmlns="http://www.w3.org/2000/svg">
<path id="Icon" d="M36 16L33.5 10.5L28 8L33.5 5.5L36 0L38.5 5.5L44 8L38.5 10.5L36 16V16M36 44L33.5 38.5L28 36L33.5 33.5L36 28L38.5 33.5L44 36L38.5 38.5L36 44V44M16 38L11 27L0 22L11 17L16 6L21 17L32 22L21 27L16 38V38M16 28.3L18 24L22.3 22L18 20L16 15.7L14 20L9.7 22L14 24L16 28.3V28.3M16 22V22V22V22V22V22V22V22V22V22" fill="var(--fill-0, #E3AA31)"/>
</svg>
